<?xml version="1.0" encoding="UTF-8"?>
<svg id="Layer_1" data-name="Layer 1" xmlns="http://www.w3.org/2000/svg" viewBox="0 0 272.59 272.59">
  <defs>
    <style>
      .cls-1 {
        fill: #50b0b0;
        stroke: #00a79d;
      }

      .cls-1, .cls-2 {
        stroke-miterlimit: 10;
      }

      .cls-3 {
        fill: #fff;
      }

      .cls-2 {
        fill: #231f20;
        stroke: #fff;
      }
    </style>
  </defs>
  <rect class="cls-2" x=".5" y=".5" width="271.59" height="271.59"/>
  <path class="cls-3" d="M208.91,218.12l-6.46-33.57c.4-38.65-.61-77.35-.15-115.99.03-2.83-.19-9.3.87-11.27,2.15-4,12.41-4.19,12.92,2.34v123.99c-2.33,10.42-3.58,22.47-6.28,32.62-.19.7-.21,1.67-.89,1.88Z"/>
  <path class="cls-1" d="M115.65,118.4c-.57.56,4.13,12.6,4.87,14.18,2.3,4.92,2.5,6.39,8.46,5.97,12.98-.91,27.28-6.52,40.32-8.15,5.98.13,7.07,3.37,6.65,8.76-.83,10.81-4.31,24.09-5.99,35.2-1.09,7.19-4.69,24.7-2.93,30.85.93,3.26,3.03,4.41,6.36,4.37l-.43,5.05c-5.34,1.03-11.07,2.67-16.47,3.22-3.09.32-8,.69-10.64-1.06-5.53-3.67-2.87-16.56-2.15-22.27,2.21-17.4,5.91-34.62,8.25-52.01-5.78,1.31-11.58,2.71-17.41,3.81-6.8,1.28-23.63,4.86-29.58,3.18-4.71-1.33-7.05-6.41-8.83-10.53l-16.09,3.93-.3.7c.8,6.07,1.06,12.79-1.06,18.63-4.48,12.38-17.44,17.96-29.96,16.22,4.22-11.43,5.8-23.89,1.31-35.5l43.31-10.53c-9.68-27.3-14.91-68.24,16.9-82.79,23.58-10.78,62.78-6.5,61.42,26.92-1.19,29.12-31.12,40.37-56.01,41.85ZM126.49,55.39c-21.18,2.6-18.8,33.11-15.44,48.1.26,1.18,1.55,7.23,2.22,7.4,19.5-3.71,38.15-21.7,32.78-42.92-2.45-9.69-9.89-13.77-19.57-12.59Z"/>
</svg>