<?xml version="1.0" encoding="UTF-8"?>
<svg id="Layer_1" data-name="Layer 1" xmlns="http://www.w3.org/2000/svg" viewBox="0 0 411.02 411.89">
  <defs>
    <style>
      .cls-1 {
        font-size: 33.57px;
      }

      .cls-1, .cls-2, .cls-3 {
        fill: #231f20;
      }

      .cls-1, .cls-3 {
        font-family: Gilroy-Light, Gilroy-Light;
        font-weight: 300;
      }

      .cls-3 {
        font-size: 37.88px;
      }
    </style>
  </defs>
  <g>
    <path d="M290.97,157.33h-3.49c.42,1.74-.67,8.32.58,9.09.87.54,3.65,1.07,5.07,1.81,10.37,5.42,12.65,19.61,3.86,27.62l21.01,48.29.13,1.37-12.49,4.53-21.47-49.13-14.46,33.23c-6.44,2.61-9.95,9.8-7.07,16.4-4.38,10.92-11.87,20.15-18.06,30.07l-4.17-1.27,6.25-25.97,24.64-57-.03-.69c-10.21-10.07-4.31-26.99,9.58-29.3v-9.07h-3.49v-20.4c0-.12.75-1.94.91-2.23,1.86-3.54,6.59-4.52,9.88-2.28.86.59,2.81,2.82,2.81,3.81v21.1Z"/>
    <path d="M213.69,280.62l-7.57-30.05c.47-34.6-.71-69.24-.18-103.82.04-2.53-.22-8.32,1.02-10.09,2.52-3.58,14.54-3.75,15.14,2.09v110.99c-2.73,9.32-4.2,20.12-7.36,29.2-.22.63-.25,1.5-1.05,1.68Z"/>
    <path d="M319.65,248.03c.45-.03.6.13.74.54l8.24,19.09c.05,5.03-3.96,8.19-8.93,6.94-2.58-.65-3.6-2.57-4.7-4.72-2.72-5.29-4.7-11.38-7.35-16.75l12.01-5.1Z"/>
    <path class="cls-2" d="M131.67,204.61c-.43.43,3.16,9.6,3.72,10.81,1.76,3.75,1.91,4.87,6.46,4.55,9.91-.69,20.84-4.97,30.8-6.21,4.57.1,5.4,2.57,5.08,6.68-.64,8.24-3.29,18.37-4.58,26.83-.83,5.48-3.58,18.83-2.24,23.51.71,2.48,2.31,3.36,4.86,3.33l-.33,3.85c-4.08.78-8.46,2.04-12.58,2.46-2.36.24-6.11.53-8.13-.81-4.23-2.8-2.19-12.62-1.64-16.98,1.69-13.26,4.52-26.39,6.3-39.64-4.42,1-8.84,2.06-13.3,2.9-5.19.98-18.05,3.7-22.59,2.42-3.6-1.02-5.38-4.88-6.75-8.03l-12.29,3-.23.54c.61,4.63.81,9.75-.81,14.2-3.42,9.44-13.32,13.69-22.88,12.37,3.22-8.71,4.43-18.21,1-27.06l33.08-8.02c-7.39-20.81-11.39-52.02,12.91-63.1,18.01-8.22,47.95-4.95,46.91,20.52-.91,22.2-23.77,30.77-42.78,31.9ZM139.95,156.59c-16.18,1.98-14.35,25.24-11.79,36.67.2.9,1.18,5.51,1.7,5.64,14.89-2.83,29.13-16.54,25.03-32.72-1.87-7.38-7.55-10.5-14.94-9.59Z"/>
  </g>
  <text class="cls-3" transform="translate(42.4 144.67) rotate(-64.86)"><tspan x="0" y="0">D</tspan></text>
  <text class="cls-3" transform="translate(61.01 108.87) rotate(-52.17)"><tspan x="0" y="0">A</tspan></text>
  <text class="cls-3" transform="translate(85.16 80.05) rotate(-39.49)"><tspan x="0" y="0">N</tspan></text>
  <text class="cls-3" transform="translate(117.27 56.23) rotate(-29.18)"><tspan x="0" y="0">I</tspan></text>
  <text class="cls-3" transform="translate(137.44 45.75) rotate(-19.73)"><tspan x="0" y="0">E</tspan></text>
  <text class="cls-3" transform="translate(169.99 35.58) rotate(-8.66)"><tspan x="0" y="0">L</tspan></text>
  <text class="cls-3" transform="translate(202.53 32.11) rotate(.93)"><tspan x="0" y="0"> </tspan></text>
  <text class="cls-3" transform="translate(226.72 33.04) rotate(10.82)"><tspan x="0" y="0">A</tspan></text>
  <text class="cls-3" transform="translate(262.66 41.41) rotate(22.73)"><tspan x="0" y="0">S</tspan></text>
  <text class="cls-3" transform="translate(294.11 55.99) rotate(34.18)"><tspan x="0" y="0">S</tspan></text>
  <text class="cls-3" transform="translate(322.61 77.09) rotate(45.57)"><tspan x="0" y="0">E</tspan></text>
  <text class="cls-3" transform="translate(345.48 102.38) rotate(56.67)"><tspan x="0" y="0">F</tspan></text>
  <text class="cls-3" transform="translate(362.38 129.99) rotate(68.06)"><tspan x="0" y="0">A</tspan></text>
  <text class="cls-1" transform="translate(7.85 218.58) rotate(83.56)"><tspan x="0" y="0">P</tspan></text>
  <text class="cls-1" transform="translate(11.3 245.14) rotate(75.65)"><tspan x="0" y="0">R</tspan></text>
  <text class="cls-1" transform="translate(18.65 271.87) rotate(67.5)"><tspan x="0" y="0">A</tspan></text>
  <text class="cls-1" transform="translate(29.49 297.18) rotate(58.91)"><tspan x="0" y="0">C</tspan></text>
  <text class="cls-1" transform="translate(46.67 324.23) rotate(50.68)"><tspan x="0" y="0">T</tspan></text>
  <text class="cls-1" transform="translate(62.69 342.88) rotate(45.12)"><tspan x="0" y="0">I</tspan></text>
  <text class="cls-1" transform="translate(72.76 353.17) rotate(38.45)"><tspan x="0" y="0">C</tspan></text>
  <text class="cls-1" transform="translate(98.32 372.3) rotate(31.77)"><tspan x="0" y="0">I</tspan></text>
  <text class="cls-1" transform="translate(110.47 379.9) rotate(25.38)"><tspan x="0" y="0">N</tspan></text>
  <text class="cls-1" transform="translate(138.28 392.58) rotate(15.93)"><tspan x="0" y="0">G</tspan></text>
  <text class="cls-1" transform="translate(170.93 400.86) rotate(8.72)"><tspan x="0" y="0"> </tspan></text>
  <text class="cls-1" transform="translate(186.39 403.2) rotate(2.47)"><tspan x="0" y="0">A</tspan></text>
  <text class="cls-1" transform="translate(214.56 403.91) rotate(-5.49)"><tspan x="0" y="0">R</tspan></text>
  <text class="cls-1" transform="translate(242.31 400.86) rotate(-14.26)"><tspan x="0" y="0">C</tspan></text>
  <text class="cls-1" transform="translate(273.74 392.16) rotate(-23.45)"><tspan x="0" y="0">H</tspan></text>
  <text class="cls-1" transform="translate(300.68 379.6) rotate(-29.85)"><tspan x="0" y="0">I</tspan></text>
  <text class="cls-1" transform="translate(312.88 372.53) rotate(-35.45)"><tspan x="0" y="0">T</tspan></text>
  <text class="cls-1" transform="translate(333 357.67) rotate(-42.61)"><tspan x="0" y="0">E</tspan></text>
  <text class="cls-1" transform="translate(351.16 340.64) rotate(-50.82)"><tspan x="0" y="0">C</tspan></text>
  <text class="cls-1" transform="translate(370.81 315.35) rotate(-59.05)"><tspan x="0" y="0">T</tspan></text>
  <text class="cls-1" transform="translate(383.49 293.54) rotate(-66.99)"><tspan x="0" y="0">U</tspan></text>
  <text class="cls-1" transform="translate(394.51 266.08) rotate(-75.35)"><tspan x="0" y="0">R</tspan></text>
  <text class="cls-1" transform="translate(400.95 239.27) rotate(-82.97)"><tspan x="0" y="0">E</tspan></text>
</svg>